<?xml version="1.0" encoding="UTF-8"?>
<svg id="_レイヤー_2" data-name="レイヤー 2" xmlns="http://www.w3.org/2000/svg" viewBox="0 0 51.08 61.11">
  <defs>
    <style>
      .cls-1 {
        fill: #dde070;
        stroke: #333;
        stroke-linecap: round;
        stroke-linejoin: round;
        stroke-width: 3px;
      }
    </style>
  </defs>
  <g id="achievements">
    <g id="buy-lime">
      <g>
        <ellipse class="cls-1" cx="32.88" cy="15.31" rx="11.08" ry="13.81"/>
        <ellipse class="cls-1" cx="29.65" cy="15.31" rx="11.08" ry="13.81"/>
        <ellipse class="cls-1" cx="28.56" cy="15.43" rx="6.25" ry="8.71"/>
      </g>
      <path class="cls-1" d="M4.1,9.42l8.31,3.46c.45.19.79.59.89,1.07l1.92,8.94c.18.82.99,1.34,1.81,1.15l30.71-7.14c1.05-.24,2,.66,1.82,1.72l-4.2,23.81c-.12.68-.69,1.2-1.39,1.24l-24.13,1.46c-.65.04-1.21.5-1.37,1.13l-.07.27c-.24.95.48,1.86,1.46,1.86h23.79c.83,0,1.5.67,1.5,1.5v1c0,.83-.67,1.5-1.5,1.5H15.61c-.89,0-1.59-.78-1.49-1.67l.59-5.32c.02-.14.01-.29-.01-.43l-4.97-27.48c-.09-.5-.43-.92-.9-1.12l-6.4-2.66c-.73-.3-1.1-1.12-.84-1.87l.52-1.53c.28-.82,1.2-1.24,2-.9Z"/>
      <circle class="cls-1" cx="17.93" cy="55.61" r="4"/>
      <circle class="cls-1" cx="42.74" cy="55.61" r="4"/>
    </g>
  </g>
</svg>