<?xml version="1.0" encoding="UTF-8"?>
<svg id="_レイヤー_2" data-name="レイヤー 2" xmlns="http://www.w3.org/2000/svg" viewBox="0 0 64.39 54.81">
  <defs>
    <style>
      .cls-1 {
        fill: #dde070;
        stroke: #333;
        stroke-linecap: round;
        stroke-linejoin: round;
        stroke-width: 3px;
      }
    </style>
  </defs>
  <g id="achievements">
    <g id="expense-lime">
      <path class="cls-1" d="M15.96,9.23c-2.35-4.84-2.76-6.82-3.71-6.77-1.25.08-2.4,3.63-2.36,6.74.04,3.41,1.49,6.05,1.04,6.27-.3.15-.85-1.09-2.37-2.1-1.47-.98-3.9-1.79-4.8-.9-.93.93-.06,3.56,1.24,5.2,1.6,2.03,3.97,2.7,3.87,2.93-.07.16-1.15-.32-2.67-.5-.54-.06-3.9-.46-4.57.8-.64,1.2,1.25,3.8,3.47,5.07,2.01,1.15,4.19,1.14,4.17,1.33-.02.13-1.05.02-2.23.13-1.88.18-4.7.97-4.77,1.87-.11,1.38,6.18,2.89,9.84,3.5,4.37.72,7.46,1.19,8.94-.54.79-.92.72-2.61.56-5.97-.16-3.37-.24-5.08-.84-7.34-.93-3.52-1.86-3.66-4.81-9.73Z"/>
      <path class="cls-1" d="M55.13,30.14c5.28-1.05,7.11-1.92,7.63-1.13.69,1.04-1.45,4.1-3.95,5.95-2.74,2.03-5.72,2.46-5.62,2.96.07.33,1.38.02,3.1.62,1.66.58,3.78,2.03,3.61,3.29-.18,1.3-2.8,2.2-4.89,2.15-2.59-.05-4.55-1.54-4.67-1.32-.09.15.95.72,2.01,1.83.38.39,2.72,2.84,2.12,4.13-.58,1.23-3.78,1.3-6.13.29-2.13-.91-3.44-2.65-3.58-2.52-.09.09.62.85,1.24,1.86,1,1.61,2.06,4.33,1.39,4.93-1.03.92-6.04-3.18-8.73-5.74-3.21-3.05-5.44-5.23-4.96-7.45.26-1.18,1.65-2.16,4.42-4.05,2.78-1.9,4.2-2.87,6.36-3.76,3.36-1.38,4.04-.72,10.66-2.04Z"/>
      <g>
        <ellipse class="cls-1" cx="29.2" cy="33.75" rx="17.25" ry="13.84" transform="translate(-14.02 44.86) rotate(-63.56)"/>
        <ellipse class="cls-1" cx="25.58" cy="31.95" rx="17.25" ry="13.84" transform="translate(-14.41 40.63) rotate(-63.56)"/>
        <ellipse class="cls-1" cx="24.3" cy="31.49" rx="10.89" ry="7.81" transform="translate(-14.71 39.22) rotate(-63.56)"/>
      </g>
      <path class="cls-1" d="M51.82,15.72c-1.67,3.02-7.93,2.75-13.96-.6s-9.57-8.51-7.9-11.53,7.93-2.75,13.96.6,9.57,8.51,7.9,11.53ZM42.3,7.11c-3.62-2.01-7.19-2.5-7.97-1.09s1.52,4.18,5.14,6.19,7.19,2.5,7.97,1.09-1.52-4.18-5.14-6.19Z"/>
    </g>
  </g>
</svg>