<?xml version="1.0" encoding="UTF-8"?>
<svg id="_レイヤー_2" data-name="レイヤー 2" xmlns="http://www.w3.org/2000/svg" viewBox="0 0 64.26 66.47">
  <defs>
    <style>
      .cls-1 {
        stroke-miterlimit: 10;
      }

      .cls-1, .cls-2 {
        fill: #b4ce49;
        stroke: #333;
      }

      .cls-2 {
        stroke-linecap: round;
        stroke-linejoin: round;
        stroke-width: 3px;
      }
    </style>
  </defs>
  <g id="achievements">
    <g id="farm-tea">
      <g>
        <path class="cls-2" d="M19.02,18.85c-1.9,1.63-3.44,3.57-4.58,5.72l-8.03,2.19-2.97-8.53c1.94-3.53,4.54-6.72,7.74-9.37l.95,7.12,6.88,2.88Z"/>
        <path class="cls-2" d="M14.84,28.49c-.63,2.42-.79,4.89-.51,7.3l-5.35,6.37-7.3-5.32c-.42-4-.1-8.11,1.02-12.11l4.84,5.31,7.3-1.55Z"/>
        <path class="cls-2" d="M14.89,40.44c.59,2.43,1.62,4.69,3.01,6.68l-1.7,8.14-8.95-1.23c-2.26-3.33-3.92-7.1-4.82-11.15l6.77,2.39,5.7-4.82Z"/>
        <path class="cls-2" d="M21.09,49.22c1.89,1.64,4.04,2.87,6.33,3.68l3.35,7.62-8,4.2c-3.78-1.39-7.32-3.49-10.41-6.27l6.9-2,1.83-7.24Z"/>
        <path class="cls-2" d="M28.93,14.11c-2.47.4-4.79,1.26-6.88,2.5l-7.99-2.31,1.9-8.83c3.49-2.01,7.37-3.38,11.48-3.97l-2.89,6.57,4.38,6.04Z"/>
        <path class="cls-2" d="M45.24,19.09c1.9,1.63,3.44,3.57,4.58,5.72l8.03,2.19,2.97-8.53c-1.94-3.53-4.54-6.72-7.74-9.37l-.95,7.12-6.88,2.88Z"/>
        <path class="cls-2" d="M49.43,28.74c.63,2.42.79,4.89.51,7.3l5.35,6.37,7.3-5.32c.42-4,.1-8.11-1.02-12.11l-4.84,5.31-7.3-1.55Z"/>
        <path class="cls-2" d="M49.38,40.69c-.59,2.43-1.62,4.69-3.01,6.68l1.7,8.14,8.95-1.23c2.26-3.33,3.92-7.1,4.82-11.15l-6.77,2.39-5.7-4.82Z"/>
        <path class="cls-2" d="M43.18,49.47c-1.89,1.64-4.04,2.87-6.33,3.68l-3.35,7.62,8,4.2c3.78-1.39,7.32-3.49,10.41-6.27l-6.9-2-1.83-7.24Z"/>
        <path class="cls-2" d="M35.34,14.36c2.47.4,4.79,1.26,6.88,2.5l7.99-2.31-1.9-8.83c-3.49-2.01-7.37-3.38-11.48-3.97l2.89,6.57-4.38,6.04Z"/>
      </g>
      <g id="hoe">
        <g>
          <rect class="cls-1" x="32.07" y="16.88" width="2.81" height="31.11" transform="translate(-13.13 33.17) rotate(-45)"/>
          <polygon class="cls-1" points="31.02 22.03 28.04 25.01 27.44 24.42 25.45 26.4 26.05 27 17.5 37.53 16.71 36.74 22.87 23.82 23.47 24.42 25.45 22.43 24.86 21.83 27.84 18.85 31.02 22.03"/>
        </g>
      </g>
    </g>
  </g>
</svg>