<?xml version="1.0" encoding="UTF-8"?>
<svg id="_レイヤー_2" data-name="レイヤー 2" xmlns="http://www.w3.org/2000/svg" viewBox="0 0 57.61 66.94">
  <defs>
    <style>
      .cls-1 {
        fill: #e2a100;
        stroke: #333;
        stroke-linecap: round;
        stroke-linejoin: round;
        stroke-width: 3px;
      }
    </style>
  </defs>
  <g id="achievements">
    <g id="income-mustard">
      <g>
        <ellipse class="cls-1" cx="42.68" cy="51.72" rx="13.44" ry="6.5"/>
        <ellipse class="cls-1" cx="42.68" cy="48.26" rx="13.44" ry="6.5"/>
      </g>
      <g>
        <ellipse class="cls-1" cx="14.94" cy="53.46" rx="13.44" ry="6.5"/>
        <ellipse class="cls-1" cx="14.94" cy="49.99" rx="13.44" ry="6.5"/>
      </g>
      <g>
        <ellipse class="cls-1" cx="31.98" cy="58.63" rx="6.5" ry="13.44" transform="translate(-31.23 80.2) rotate(-80.23)"/>
        <ellipse class="cls-1" cx="32.57" cy="55.22" rx="6.5" ry="13.44" transform="translate(-27.37 77.95) rotate(-80.23)"/>
      </g>
      <g>
        <ellipse class="cls-1" cx="36.9" cy="45.56" rx="6.5" ry="13.44" transform="translate(-18.33 65.21) rotate(-70.58)"/>
        <ellipse class="cls-1" cx="38.05" cy="42.29" rx="6.5" ry="13.44" transform="translate(-14.48 64.11) rotate(-70.58)"/>
      </g>
      <g>
        <ellipse class="cls-1" cx="21.76" cy="42.01" rx="13.44" ry="6.5" transform="translate(-12.8 9.7) rotate(-19.54)"/>
        <ellipse class="cls-1" cx="20.6" cy="38.74" rx="13.44" ry="6.5" transform="translate(-11.77 9.12) rotate(-19.54)"/>
      </g>
      <g>
        <ellipse class="cls-1" cx="31.9" cy="23.98" rx="10.78" ry="13.44"/>
        <ellipse class="cls-1" cx="28.75" cy="23.98" rx="10.78" ry="13.44"/>
        <ellipse class="cls-1" cx="27.69" cy="24.11" rx="6.09" ry="8.48"/>
      </g>
      <path class="cls-1" d="M14.43,6.07c-1.81-1.77-2.38-3.76-2.56-4.57-.17.81-.7,2.82-2.46,4.62s-3.76,2.38-4.57,2.56c.81.17,2.82.7,4.62,2.46,1.81,1.77,2.38,3.76,2.56,4.57.17-.81.7-2.82,2.46-4.62s3.76-2.38,4.57-2.56c-.81-.17-2.82-.7-4.62-2.46Z"/>
    </g>
  </g>
</svg>