<?xml version="1.0" encoding="UTF-8"?>
<svg id="_レイヤー_2" data-name="レイヤー 2" xmlns="http://www.w3.org/2000/svg" viewBox="0 0 49.88 56.88">
  <defs>
    <style>
      .cls-1 {
        fill: #75c697;
      }

      .cls-1, .cls-2 {
        stroke: #333;
        stroke-linecap: round;
        stroke-linejoin: round;
        stroke-width: 3px;
      }

      .cls-2 {
        fill: none;
      }
    </style>
  </defs>
  <g id="achievements">
    <g id="money-mint">
      <path class="cls-1" d="M12.24,3.98l1.62,6.96c.21.92,1.03,1.56,1.97,1.56h18.38c.95,0,1.77-.66,1.97-1.59l1.51-6.96c.27-1.26-.69-2.45-1.97-2.45H14.21c-1.3,0-2.26,1.21-1.97,2.48Z"/>
      <path class="cls-2" d="M43.22,53.06l5.12-31.66c.19-1.16-.38-2.3-1.42-2.85l-6.88-3.65c-1.09-.58-1.65-1.81-1.38-3.01l.24-1.08c.38-1.71-.92-3.33-2.67-3.33l-22.61.02c-1.75,0-3.05,1.62-2.66,3.33l.24,1.09c.27,1.2-.3,2.43-1.38,3.01l-6.88,3.65c-1.03.55-1.6,1.69-1.42,2.85l5.12,31.66c.21,1.32,1.36,2.3,2.7,2.3l31.17-.02c1.34,0,2.48-.97,2.7-2.3Z"/>
      <g>
        <ellipse class="cls-1" cx="30.62" cy="37.11" rx="11.1" ry="14.43"/>
        <ellipse class="cls-1" cx="27.38" cy="37.11" rx="11.1" ry="14.43"/>
        <ellipse class="cls-1" cx="26.29" cy="37.24" rx="6.27" ry="9.11"/>
      </g>
      <path class="cls-1" d="M13.35,22.57c-1.46-1.43-1.93-3.05-2.08-3.71-.14.66-.57,2.29-2,3.75s-3.05,1.93-3.71,2.08c.66.14,2.29.57,3.75,2,1.46,1.43,1.93,3.05,2.08,3.71.14-.66.57-2.29,2-3.75s3.05-1.93,3.71-2.08c-.66-.14-2.29-.57-3.75-2Z"/>
    </g>
  </g>
</svg>