<?xml version="1.0" encoding="UTF-8"?>
<svg id="_レイヤー_2" data-name="レイヤー 2" xmlns="http://www.w3.org/2000/svg" viewBox="0 0 53.42 66.45">
  <defs>
    <style>
      .cls-1 {
        fill: #b4ce49;
        stroke: #333;
        stroke-linecap: round;
        stroke-linejoin: round;
        stroke-width: 3px;
      }
    </style>
  </defs>
  <g id="achievements">
    <g id="sell-tea">
      <g>
        <g>
          <g>
            <polygon class="cls-1" points="1.5 13.22 1.5 6.28 5.66 7.28 5.66 15.72 10.38 19.13 10.38 29.5 1.5 23.98 1.5 13.22"/>
            <polygon class="cls-1" points="1.5 28.16 10.38 33.55 10.38 43.92 1.5 39.1 1.5 28.16"/>
            <polygon class="cls-1" points="1.5 43.09 10.38 48.06 10.38 58 1.5 53.03 1.5 43.09"/>
          </g>
          <g>
            <polygon class="cls-1" points="22.87 13.49 22.87 6.55 18.71 7.55 18.71 16 13.99 19.4 13.99 29.77 22.87 24.25 22.87 13.49"/>
            <polygon class="cls-1" points="22.87 28.44 13.99 33.82 13.99 44.2 22.87 39.37 22.87 28.44"/>
            <polygon class="cls-1" points="22.87 43.36 13.99 48.33 13.99 58.27 22.87 53.3 22.87 43.36"/>
          </g>
        </g>
        <polygon class="cls-1" points="9.42 13.5 9.42 10.5 9.42 1.5 14.42 1.5 14.42 10.5 14.42 13.5 12.26 16.49 9.42 13.5"/>
      </g>
      <g>
        <ellipse class="cls-1" cx="38.08" cy="47.69" rx="13.84" ry="17.25"/>
        <ellipse class="cls-1" cx="34.04" cy="47.69" rx="13.84" ry="17.25"/>
        <ellipse class="cls-1" cx="32.69" cy="47.85" rx="7.81" ry="10.89"/>
      </g>
    </g>
  </g>
</svg>