<?xml version="1.0" encoding="UTF-8"?>
<svg id="_レイヤー_2" data-name="レイヤー 2" xmlns="http://www.w3.org/2000/svg" viewBox="0 0 58.03 55.86">
  <defs>
    <style>
      .cls-1 {
        fill: #75c697;
        stroke: #333;
        stroke-linecap: round;
        stroke-linejoin: round;
        stroke-width: 3px;
      }
    </style>
  </defs>
  <g id="achievements">
    <g id="time-mint">
      <circle class="cls-1" cx="29.02" cy="30.86" r="23.5"/>
      <circle class="cls-1" cx="29.02" cy="30.86" r="16.5"/>
      <polyline class="cls-1" points="38.77 30.86 29.14 30.86 29.14 18.86"/>
      <g>
        <path class="cls-1" d="M4.88,18.36c1,.13,1.96-4.51,6-8,4.16-3.59,7.89-3.7,8-5,.15-1.74-7-6-13-2-8.32,5.55-2.51,14.81-1,15Z"/>
        <path class="cls-1" d="M53.15,18.16c-1,.13-1.96-4.51-6-8-4.16-3.59-7.89-3.7-8-5-.15-1.74,7-6,13-2,8.32,5.55,2.51,14.81,1,15Z"/>
      </g>
    </g>
  </g>
</svg>